<svg width="128" height="13" viewBox="0 0 128 13" fill="none" xmlns="http://www.w3.org/2000/svg">
<path d="M0.474609 10V9.26172L1.42969 9.09766V2.37695L0.474609 2.21289V1.46875H3.53906V2.21289L2.58398 2.37695V5.32422H6.66211V2.37695L5.70703 2.21289V1.46875H6.66211H7.81641H8.77148V2.21289L7.81641 2.37695V9.09766L8.77148 9.26172V10H5.70703V9.26172L6.66211 9.09766V6.23242H2.58398V9.09766L3.53906 9.26172V10H0.474609ZM12.5684 10.123C11.9824 10.123 11.4727 9.99023 11.0391 9.72461C10.6055 9.45508 10.2695 9.08203 10.0312 8.60547C9.79688 8.12891 9.67969 7.57812 9.67969 6.95312V6.69531C9.67969 6.09375 9.80273 5.55664 10.0488 5.08398C10.2988 4.60742 10.6289 4.23242 11.0391 3.95898C11.4531 3.68164 11.9043 3.54297 12.3926 3.54297C12.9629 3.54297 13.4395 3.66016 13.8223 3.89453C14.209 4.12891 14.5 4.45898 14.6953 4.88477C14.8906 5.30664 14.9883 5.80469 14.9883 6.37891V7.09961H10.875L10.8574 7.12891C10.8652 7.53516 10.9355 7.89648 11.0684 8.21289C11.2051 8.52539 11.4004 8.77148 11.6543 8.95117C11.9082 9.13086 12.2129 9.2207 12.5684 9.2207C12.959 9.2207 13.3008 9.16602 13.5938 9.05664C13.8906 8.94336 14.1465 8.78906 14.3613 8.59375L14.8125 9.34375C14.5859 9.5625 14.2852 9.74805 13.9102 9.90039C13.5391 10.0488 13.0918 10.123 12.5684 10.123ZM10.9102 6.19727H13.834V6.04492C13.834 5.74023 13.7793 5.46875 13.6699 5.23047C13.5645 4.98828 13.4043 4.79883 13.1895 4.66211C12.9785 4.52148 12.7129 4.45117 12.3926 4.45117C12.1348 4.45117 11.9004 4.52734 11.6895 4.67969C11.4785 4.82812 11.3047 5.03125 11.168 5.28906C11.0312 5.54688 10.9414 5.83984 10.8984 6.16797L10.9102 6.19727ZM17.127 12.5605C17.0371 12.5605 16.9199 12.5488 16.7754 12.5254C16.6309 12.5059 16.5195 12.4863 16.4414 12.4668L16.5586 11.5586C16.625 11.5664 16.7168 11.5723 16.834 11.5762C16.9512 11.584 17.0312 11.5879 17.0742 11.5879C17.3203 11.5879 17.5195 11.4941 17.6719 11.3066C17.8281 11.1191 17.9727 10.8633 18.1055 10.5391L18.3809 9.87109L16.1367 4.49805L15.457 4.4043V3.66016H18.1172V4.4043L17.3496 4.52148L18.5859 7.69141L18.8848 8.51758H18.9199L20.3848 4.52148L19.5762 4.4043V3.66016H22.1836V4.4043L21.5273 4.49805L19.0312 10.9727C18.9141 11.2773 18.7715 11.5488 18.6035 11.7871C18.4395 12.0293 18.2363 12.2188 17.9941 12.3555C17.7559 12.4922 17.4668 12.5605 17.127 12.5605ZM23.1387 7.19922V1.46875H24.293V7.19922H23.1387ZM23.1387 10V8.80469H24.293V10H23.1387ZM28.9102 11.8223L28.2598 11.3887C28.4434 11.1074 28.582 10.8203 28.6758 10.5273C28.7695 10.2344 28.8164 9.92383 28.8164 9.5957V8.70508H29.9707V9.57812C29.9707 9.96094 29.875 10.3613 29.6836 10.7793C29.4922 11.1973 29.2344 11.5449 28.9102 11.8223ZM33.9551 10V9.26172L34.9102 9.09766V2.37695L33.9551 2.21289V1.46875H37.0195V2.21289L36.0645 2.37695V9.09766L37.0195 9.26172V10H33.9551ZM38.4199 4.18164L37.7637 3.74805C37.9473 3.4707 38.0859 3.1875 38.1797 2.89844C38.2734 2.60547 38.3203 2.29102 38.3203 1.95508V0.859375H39.4746V1.9375C39.4746 2.19531 39.4316 2.46484 39.3457 2.74609C39.2598 3.02344 39.1387 3.28711 38.9824 3.53711C38.8262 3.78711 38.6387 4.00195 38.4199 4.18164ZM40.2656 10V9.26172L41.2207 9.09766V4.56836L40.2656 4.4043V3.66016H42.2578L42.334 4.48633C42.5371 4.18555 42.7988 3.95312 43.1191 3.78906C43.4395 3.625 43.8105 3.54297 44.2324 3.54297C44.6543 3.54297 45.0156 3.64062 45.3164 3.83594C45.6211 4.03125 45.8496 4.32422 46.002 4.71484C46.2012 4.35547 46.4648 4.07031 46.793 3.85938C47.1211 3.64844 47.5039 3.54297 47.9414 3.54297C48.5898 3.54297 49.1016 3.76562 49.4766 4.21094C49.8516 4.65234 50.0391 5.31836 50.0391 6.20898V9.09766L50.9941 9.26172V10H47.9238V9.26172L48.8789 9.09766V6.19727C48.8789 5.57227 48.7715 5.13086 48.5566 4.87305C48.3418 4.61133 48.0234 4.48047 47.6016 4.48047C47.1992 4.48047 46.875 4.62305 46.6289 4.9082C46.3867 5.18945 46.2461 5.54492 46.207 5.97461V9.09766L47.1621 9.26172V10H44.0977V9.26172L45.0527 9.09766V6.19727C45.0527 5.60352 44.9414 5.16992 44.7188 4.89648C44.5 4.61914 44.1816 4.48047 43.7637 4.48047C43.4121 4.48047 43.123 4.55273 42.8965 4.69727C42.6699 4.8418 42.4961 5.04492 42.375 5.30664V9.09766L43.3301 9.26172V10H40.2656ZM54.8203 10V9.26172L55.4531 9.17383L58.4355 1.46875H59.4258L62.3555 9.17383L62.9824 9.26172V10H60.5332V9.26172L61.1777 9.15039L60.6152 7.58008H57.1992L56.6191 9.15039L57.2637 9.26172V10H54.8203ZM57.5566 6.61328H60.2637L59.0098 3.14453L58.9395 2.95117H58.9043L58.834 3.14453L57.5566 6.61328ZM66.1465 10.123C65.6309 10.123 65.1875 9.99609 64.8164 9.74219C64.4492 9.48438 64.168 9.12695 63.9727 8.66992C63.7773 8.21289 63.6797 7.67969 63.6797 7.07031V6.94727C63.6797 6.26758 63.7773 5.67188 63.9727 5.16016C64.168 4.64844 64.4512 4.25195 64.8223 3.9707C65.1934 3.68555 65.6387 3.54297 66.1582 3.54297C66.5332 3.54297 66.8633 3.61328 67.1484 3.75391C67.4375 3.89062 67.6836 4.08984 67.8867 4.35156V1.76758L66.9316 1.60352V0.859375H67.8867H69.041V9.09766L69.9961 9.26172V10H68.0391L67.9453 9.24414C67.7383 9.5332 67.4844 9.75195 67.1836 9.90039C66.8867 10.0488 66.541 10.123 66.1465 10.123ZM66.4395 9.18555C66.7832 9.18555 67.0723 9.10742 67.3066 8.95117C67.541 8.79492 67.7344 8.57422 67.8867 8.28906V5.34766C67.7383 5.08203 67.5449 4.87109 67.3066 4.71484C67.0684 4.55859 66.7832 4.48047 66.4512 4.48047C66.084 4.48047 65.7812 4.58594 65.543 4.79688C65.3047 5.00391 65.127 5.29297 65.0098 5.66406C64.8926 6.03125 64.834 6.45898 64.834 6.94727V7.07031C64.834 7.70703 64.9648 8.21875 65.2266 8.60547C65.4883 8.99219 65.8926 9.18555 66.4395 9.18555ZM70.752 10V9.26172L71.707 9.09766V4.56836L70.752 4.4043V3.66016H72.8613V9.09766L73.8164 9.26172V10H70.752ZM71.6484 2.0957V0.859375H72.8613V2.0957H71.6484ZM76.8516 10.0996C76.3828 10.0996 76.0098 9.96289 75.7324 9.68945C75.459 9.41211 75.3223 8.9707 75.3223 8.36523V4.51562H74.3203V3.66016H75.3223V2.13086H76.4766V3.66016H77.8535V4.51562H76.4766V8.36523C76.4766 8.66992 76.5371 8.89453 76.6582 9.03906C76.7793 9.18359 76.9414 9.25586 77.1445 9.25586C77.2812 9.25586 77.4336 9.24414 77.6016 9.2207C77.7695 9.19336 77.9004 9.16992 77.9941 9.15039L78.1523 9.90625C77.9844 9.95703 77.7773 10.002 77.5312 10.041C77.2891 10.0801 77.0625 10.0996 76.8516 10.0996ZM80.2676 12.5605C80.1777 12.5605 80.0605 12.5488 79.916 12.5254C79.7715 12.5059 79.6602 12.4863 79.582 12.4668L79.6992 11.5586C79.7656 11.5664 79.8574 11.5723 79.9746 11.5762C80.0918 11.584 80.1719 11.5879 80.2148 11.5879C80.4609 11.5879 80.6602 11.4941 80.8125 11.3066C80.9688 11.1191 81.1133 10.8633 81.2461 10.5391L81.5215 9.87109L79.2773 4.49805L78.5977 4.4043V3.66016H81.2578V4.4043L80.4902 4.52148L81.7266 7.69141L82.0254 8.51758H82.0605L83.5254 4.52148L82.7168 4.4043V3.66016H85.3242V4.4043L84.668 4.49805L82.1719 10.9727C82.0547 11.2773 81.9121 11.5488 81.7441 11.7871C81.5801 12.0293 81.377 12.2188 81.1348 12.3555C80.8965 12.4922 80.6074 12.5605 80.2676 12.5605ZM87.832 10.123C87.1719 10.123 86.6699 9.96289 86.3262 9.64258C85.9824 9.31836 85.8105 8.86328 85.8105 8.27734C85.8105 7.67578 86.0566 7.19336 86.5488 6.83008C87.041 6.46289 87.7246 6.2793 88.5996 6.2793H89.7305V5.6582C89.7305 5.27539 89.6133 4.97852 89.3789 4.76758C89.1484 4.55664 88.8223 4.45117 88.4004 4.45117C88.1348 4.45117 87.9043 4.48438 87.709 4.55078C87.5137 4.61328 87.3359 4.70117 87.1758 4.81445L87.0527 5.69922H86.1621V4.24609C86.4473 4.01562 86.7793 3.8418 87.1582 3.72461C87.5371 3.60352 87.957 3.54297 88.418 3.54297C89.1875 3.54297 89.791 3.72656 90.2285 4.09375C90.666 4.46094 90.8848 4.98633 90.8848 5.66992V8.72266C90.8848 8.80469 90.8848 8.88477 90.8848 8.96289C90.8887 9.04102 90.8945 9.11914 90.9023 9.19727L91.5176 9.26172V10H89.8594C89.8242 9.82812 89.7969 9.67383 89.7773 9.53711C89.7578 9.40039 89.7441 9.26367 89.7363 9.12695C89.5137 9.41211 89.2344 9.65039 88.8984 9.8418C88.5664 10.0293 88.2109 10.123 87.832 10.123ZM88.002 9.15625C88.3848 9.15625 88.7344 9.06445 89.0508 8.88086C89.3672 8.69727 89.5938 8.47656 89.7305 8.21875V7.07031H88.5586C88.0273 7.07031 87.6289 7.19727 87.3633 7.45117C87.0977 7.70508 86.9648 7.98828 86.9648 8.30078C86.9648 8.57812 87.0508 8.79102 87.2227 8.93945C87.3945 9.08398 87.6543 9.15625 88.002 9.15625ZM98.5195 10.123C98 10.123 97.5 10.0469 97.0195 9.89453C96.5391 9.74219 96.0801 9.50781 95.6426 9.19141V7.36914H96.5391L96.7324 8.71094C96.9863 8.86719 97.2617 8.98828 97.5586 9.07422C97.8555 9.16016 98.1758 9.20312 98.5195 9.20312C98.9102 9.20312 99.2402 9.14453 99.5098 9.02734C99.7832 8.90625 99.9922 8.74023 100.137 8.5293C100.281 8.31836 100.354 8.07227 100.354 7.79102C100.354 7.5293 100.291 7.29883 100.166 7.09961C100.041 6.90039 99.834 6.72656 99.5449 6.57812C99.2598 6.42578 98.8691 6.29297 98.373 6.17969C97.7871 6.04297 97.291 5.86133 96.8848 5.63477C96.4824 5.4043 96.1758 5.12695 95.9648 4.80273C95.7578 4.47461 95.6543 4.09961 95.6543 3.67773C95.6543 3.23242 95.7715 2.83398 96.0059 2.48242C96.2441 2.13086 96.5742 1.85352 96.9961 1.65039C97.418 1.44727 97.9102 1.3457 98.4727 1.3457C99.0703 1.3457 99.5977 1.4375 100.055 1.62109C100.516 1.80078 100.895 2.01953 101.191 2.27734V3.98242H100.295L100.102 2.76367C99.9258 2.62305 99.707 2.50586 99.4453 2.41211C99.1836 2.31836 98.8594 2.27148 98.4727 2.27148C98.1445 2.27148 97.8555 2.33008 97.6055 2.44727C97.3555 2.56055 97.1602 2.7207 97.0195 2.92773C96.8789 3.13477 96.8086 3.37891 96.8086 3.66016C96.8086 3.90625 96.8711 4.12109 96.9961 4.30469C97.125 4.48828 97.332 4.65039 97.6172 4.79102C97.9062 4.92773 98.291 5.05664 98.7715 5.17773C99.6699 5.40039 100.35 5.73047 100.811 6.16797C101.275 6.60156 101.508 7.13867 101.508 7.7793C101.508 8.23633 101.385 8.64258 101.139 8.99805C100.893 9.34961 100.545 9.625 100.096 9.82422C99.6504 10.0234 99.125 10.123 98.5195 10.123ZM102.428 10V9.26172L103.383 9.09766V4.56836L102.428 4.4043V3.66016H104.537V9.09766L105.492 9.26172V10H102.428ZM103.324 2.0957V0.859375H104.537V2.0957H103.324ZM106.289 10V9.26172L107.244 9.09766V4.56836L106.289 4.4043V3.66016H108.275L108.357 4.60352C108.568 4.26758 108.832 4.00781 109.148 3.82422C109.469 3.63672 109.832 3.54297 110.238 3.54297C110.922 3.54297 111.451 3.74414 111.826 4.14648C112.201 4.54492 112.389 5.16211 112.389 5.99805V9.09766L113.344 9.26172V10H110.279V9.26172L111.234 9.09766V6.02148C111.234 5.46289 111.123 5.06641 110.9 4.83203C110.682 4.59766 110.346 4.48047 109.893 4.48047C109.561 4.48047 109.266 4.56055 109.008 4.7207C108.754 4.88086 108.551 5.09961 108.398 5.37695V9.09766L109.354 9.26172V10H106.289ZM114.018 10V9.26172L114.973 9.09766V1.76758L114.018 1.60352V0.859375H116.127V4.50391C116.346 4.19922 116.613 3.96289 116.93 3.79492C117.246 3.62695 117.598 3.54297 117.984 3.54297C118.664 3.54297 119.191 3.74609 119.566 4.15234C119.941 4.55859 120.129 5.18359 120.129 6.02734V9.09766L121.084 9.26172V10H118.02V9.26172L118.975 9.09766V6.01562C118.975 5.49219 118.861 5.10547 118.635 4.85547C118.412 4.60547 118.078 4.48047 117.633 4.48047C117.316 4.48047 117.027 4.55664 116.766 4.70898C116.508 4.85742 116.295 5.06055 116.127 5.31836V9.09766L117.082 9.26172V10H114.018ZM123.926 10.123C123.266 10.123 122.764 9.96289 122.42 9.64258C122.076 9.31836 121.904 8.86328 121.904 8.27734C121.904 7.67578 122.15 7.19336 122.643 6.83008C123.135 6.46289 123.818 6.2793 124.693 6.2793H125.824V5.6582C125.824 5.27539 125.707 4.97852 125.473 4.76758C125.242 4.55664 124.916 4.45117 124.494 4.45117C124.229 4.45117 123.998 4.48438 123.803 4.55078C123.607 4.61328 123.43 4.70117 123.27 4.81445L123.146 5.69922H122.256V4.24609C122.541 4.01562 122.873 3.8418 123.252 3.72461C123.631 3.60352 124.051 3.54297 124.512 3.54297C125.281 3.54297 125.885 3.72656 126.322 4.09375C126.76 4.46094 126.979 4.98633 126.979 5.66992V8.72266C126.979 8.80469 126.979 8.88477 126.979 8.96289C126.982 9.04102 126.988 9.11914 126.996 9.19727L127.611 9.26172V10H125.953C125.918 9.82812 125.891 9.67383 125.871 9.53711C125.852 9.40039 125.838 9.26367 125.83 9.12695C125.607 9.41211 125.328 9.65039 124.992 9.8418C124.66 10.0293 124.305 10.123 123.926 10.123ZM124.096 9.15625C124.479 9.15625 124.828 9.06445 125.145 8.88086C125.461 8.69727 125.688 8.47656 125.824 8.21875V7.07031H124.652C124.121 7.07031 123.723 7.19727 123.457 7.45117C123.191 7.70508 123.059 7.98828 123.059 8.30078C123.059 8.57812 123.145 8.79102 123.316 8.93945C123.488 9.08398 123.748 9.15625 124.096 9.15625Z" fill="white"/>
</svg>
